<?xml version="1.0" standalone="no"?>
<!DOCTYPE svg PUBLIC "-//W3C//DTD SVG 20010904//EN"
 "http://www.w3.org/TR/2001/REC-SVG-20010904/DTD/svg10.dtd">
<svg version="1.0" xmlns="http://www.w3.org/2000/svg"
 width="1087.000000pt" height="1280.000000pt" viewBox="0 0 1087.000000 1280.000000"
 preserveAspectRatio="xMidYMid meet">
<metadata>
Created by potrace 1.15, written by Peter Selinger 2001-2017
</metadata>
<g transform="translate(0.000000,1280.000000) scale(0.100000,-0.100000)"
fill="#cc0066" stroke="none">
<path d="M4990 12794 c-162 -6 -446 -25 -665 -45 -1268 -115 -2460 -420 -3666
-939 l-126 -55 -12 -45 c-34 -141 -123 -529 -140 -615 -11 -55 -33 -163 -50
-240 -59 -278 -173 -947 -211 -1235 -6 -47 -15 -114 -20 -150 -24 -172 -59
-508 -82 -785 -17 -200 -17 -951 0 -1160 36 -449 79 -769 153 -1140 402 -2000
1477 -3731 3149 -5071 626 -501 1374 -976 1969 -1249 l145 -66 85 37 c323 142
847 437 1236 697 1952 1303 3231 3000 3798 5042 321 1153 395 2336 227 3618
-5 42 -14 110 -20 150 -5 39 -14 106 -19 149 -29 221 -149 912 -202 1163 -17
77 -39 185 -50 240 -17 86 -106 474 -140 615 l-12 45 -126 55 c-799 344 -1561
584 -2376 750 -536 109 -989 169 -1670 220 -143 11 -995 21 -1175 14z"/>
</g>
</svg>
